<svg version="1.1" id="Layer_1" xmlns="http://www.w3.org/2000/svg" xmlns:xlink="http://www.w3.org/1999/xlink"  viewBox="0 0 3000 3000" preserveAspectRatio="xMidYMid slice" class="flex-shrink-0" style="min-width:100%;min-height:100%;filter:saturate(150%);-webkit-filter:saturate(150%)" enable-background="new 0 0 3000 3000" xml:space="preserve"  x="0px" y="0px">
  <defs>
    <style>
    #bg {fill:#5135FF}
    .rect0 {fill:url(#rg0)}.rect1 {fill:url(#rg1)}.rect2 {fill:url(#rg2)}.rect3 {fill:url(#rg3)}
    </style>
    <radialGradient id="rg0" fx="0.37646022831616793" fy="0.5">
      <stop offset="0%" stop-color="#5135FF"></stop>
      <stop offset="100%" stop-color="#5135FF" stop-opacity="0"></stop>
    </radialGradient>
    <radialGradient id="rg0" fx="0.393291713805934" fy="0.5">
      <stop offset="0%" stop-color="#5135FF"></stop>
      <stop offset="100%" stop-color="#5135FF" stop-opacity="0"></stop>
    </radialGradient>
    <radialGradient id="rg0" fx="0.31517316157563" fy="0.5">
      <stop offset="0%" stop-color="#5135FF"></stop>
      <stop offset="100%" stop-color="#5135FF" stop-opacity="0"></stop>
    </radialGradient>
    <radialGradient id="rg1" fx="0.32669490037131604" fy="0.5">
      <stop offset="0%" stop-color="#FF5828"></stop>
      <stop offset="100%" stop-color="#FF5828" stop-opacity="0"></stop>
    </radialGradient>
    <radialGradient id="rg1" fx="0.3807465991105353" fy="0.5">
      <stop offset="0%" stop-color="#FF5828"></stop>
      <stop offset="100%" stop-color="#FF5828" stop-opacity="0"></stop>
    </radialGradient>
    <radialGradient id="rg1" fx="0.31895827923015674" fy="0.5">
      <stop offset="0%" stop-color="#FF5828"></stop>
      <stop offset="100%" stop-color="#FF5828" stop-opacity="0"></stop>
    </radialGradient>
    <radialGradient id="rg2" fx="0.3861793414981388" fy="0.5">
      <stop offset="0%" stop-color="#F69CFF"></stop>
      <stop offset="100%" stop-color="#F69CFF" stop-opacity="0"></stop>
    </radialGradient>
    <radialGradient id="rg2" fx="0.3725387255494849" fy="0.5">
      <stop offset="0%" stop-color="#F69CFF"></stop>
      <stop offset="100%" stop-color="#F69CFF" stop-opacity="0"></stop>
    </radialGradient>
    <radialGradient id="rg2" fx="0.3301846999866811" fy="0.5">
      <stop offset="0%" stop-color="#F69CFF"></stop>
      <stop offset="100%" stop-color="#F69CFF" stop-opacity="0"></stop>
    </radialGradient>
    <radialGradient id="rg3" fx="0.3517614655409918" fy="0.5">
      <stop offset="0%" stop-color="#FFA50F"></stop>
      <stop offset="100%" stop-color="#FFA50F" stop-opacity="0"></stop>
    </radialGradient>
    <radialGradient id="rg3" fx="0.3853574404151021" fy="0.5">
      <stop offset="0%" stop-color="#FFA50F"></stop>
      <stop offset="100%" stop-color="#FFA50F" stop-opacity="0"></stop>
    </radialGradient>
    <radialGradient id="rg3" fx="0.30892663341287047" fy="0.5">
      <stop offset="0%" stop-color="#FFA50F"></stop>
      <stop offset="100%" stop-color="#FFA50F" stop-opacity="0"></stop>
    </radialGradient>
  </defs>
  <rect id="bg" x="0" y="0" width="100%" height="100%"></rect>
  <rect class="rect rect2" x="0" y="0" width="100%" height="100%" transform="translate(1500 1500) scale(1.0719317297795805 0.9352723968394967) skewX(27.162650386144094) rotate(8.03573750043932) translate(35.0429173777328 1094.1458758708845) translate(-1500 -1500)"></rect>
  <rect class="rect rect1" x="0" y="0" width="100%" height="100%" transform="translate(1500 1500) scale(0.8886858672113218 0.7022067044284045) skewX(42.56918364358832) rotate(110.56202814156877) translate(-809.4085723046609 280.07996695931513) translate(-1500 -1500)"></rect>
  <rect class="rect rect3" x="0" y="0" width="100%" height="100%" transform="translate(1500 1500) scale(0.7071708847007852 0.6870349133619599) skewX(-22.81327638920921) rotate(202.02230858947613) translate(1242.121144472863 504.3754663426434) translate(-1500 -1500)"></rect>
  <rect class="rect rect3" x="0" y="0" width="100%" height="100%" transform="translate(1500 1500) scale(0.7616876923732061 1.1890333197351688) skewX(42.68391739666464) rotate(234.83342645152288) translate(-577.9288011767792 1468.1492397239826) translate(-1500 -1500)"></rect>
  <rect class="rect rect0" x="0" y="0" width="100%" height="100%" transform="translate(1500 1500) scale(1.0555195474218326 1.1800277482272659) skewX(26.573329382432874) rotate(284.62307748999916) translate(-752.8046242682823 -1002.3198860592652) translate(-1500 -1500)"></rect>
  <rect class="rect rect2" x="0" y="0" width="100%" height="100%" transform="translate(1500 1500) scale(0.6898589392484437 0.6761219188937412) skewX(7.850565261018822) rotate(268.42822727684035) translate(223.34786604835267 -361.9901356011314) translate(-1500 -1500)"></rect>
  <rect class="rect rect0" x="0" y="0" width="100%" height="100%" transform="translate(1500 1500) scale(1.1852342702688268 0.9630302950261175) skewX(-2.6189072140194725) rotate(99.03047665722417) translate(-1197.33461136693 -576.0672904612883) translate(-1500 -1500)"></rect>
  <rect class="rect rect1" x="0" y="0" width="100%" height="100%" transform="translate(1500 1500) scale(0.7850945739035222 0.8628200438309168) skewX(-2.9533828392877552) rotate(225.81999095862093) translate(-924.2253548038133 746.4097112715136) translate(-1500 -1500)"></rect>
  <rect class="rect rect0" x="0" y="0" width="100%" height="100%" transform="translate(1500 1500) scale(1.0113924052877605 0.8631469083560429) skewX(7.326858833009304) rotate(303.0867058273057) translate(1350.768171919454 -195.4820869067794) translate(-1500 -1500)"></rect>
  <rect class="rect rect3" x="0" y="0" width="100%" height="100%" transform="translate(1500 1500) scale(1.2417149409305406 0.6972412588517943) skewX(-22.371960926676103) rotate(296.60263880458933) translate(834.9925620657355 -30.23968932337917) translate(-1500 -1500)"></rect>
  <rect class="rect rect2" x="0" y="0" width="100%" height="100%" transform="translate(1500 1500) scale(0.7782485351929247 0.7009780502919172) skewX(31.244128174880615) rotate(351.572097114396) translate(953.9480235486326 -1206.9378803283596) translate(-1500 -1500)"></rect>
  <rect class="rect rect1" x="0" y="0" width="100%" height="100%" transform="translate(1500 1500) scale(0.7051778526717316 0.7994833857956758) skewX(39.715501065177605) rotate(30.38165834763592) translate(100.23459804352709 1358.4992158535442) translate(-1500 -1500)"></rect>
</svg>