<?xml version="1.0" encoding="UTF-8"?>
<svg fill="#FFFFFF" width="100pt" height="100pt" version="1.1" viewBox="0 0 100 100" xmlns="http://www.w3.org/2000/svg">
 <g>
  <path d="m33.102 29.301c4.3984 1.8008 9.3984-0.30078 11.199-4.6992 0.10156-0.19922 0.19922-0.39844 0.19922-0.69922l-15.398-7.3008c-0.30078 0.39844-0.5 0.89844-0.69922 1.3984-1.8008 4.5 0.29688 9.5 4.6992 11.301z"/>
  <path d="m95.801 83.301-10.602-10.699c-2.3008-2.3008-5.8984-2.3008-8.1992 0l-1.5 1.5-7.8984-7.8984c-2.6992-2.6992-7.1016-2.6992-9.8984 0l-4.7031 4.6953-11.801-8c0.10156-0.39844 0.19922-0.89844 0.10156-1.3008-0.10156-0.30078-1.1992-7.8008-1.8984-11.102-0.10156-0.39844 0-1.6992 0.19922-2.8008 0.39844-4.1016 1.1992-11.102-4.8984-14.801-1.3008-0.80078-5-2.3008-6-2.8008-6.1992-2.6016-12.898-2.8984-15.801-1.8008-0.69922 0.30078-2.5 1-9.8008 10.801-1 1.3984-0.69922 3.3008 0.69922 4.3984 0.60156 0.39844 1.1992 0.60156 1.8008 0.60156 0.60156 0 1.1992-0.19922 1.6992-0.5l6.1992 4.1992c-0.60156 1.8984-1.1016 3.6016-1.3008 5-0.89844 3.1016-0.19922 7.1016 0.5 10.898 0.39844 2 0.89844 5.3008 0.69922 6.3984-2 4-7.8984 16.199-7.8984 16.301-1 2-0.10156 4.3984 1.8984 5.3984 0.60156 0.30078 1.1992 0.39844 1.6992 0.39844 1.5 0 2.8984-0.80078 3.6016-2.3008 0.10156-0.10156 6-12.398 8-16.301 1.1992-2.5 0.89844-5.6992 0.30078-9.3008 2.5 2.8984 5.1016 6.8008 6.1016 8.8984 0.39844 1.8008-0.19922 9.3984-1 15.5-0.30078 2.1992 1.3008 4.1992 3.5 4.5h0.5c2 0 3.6992-1.5 4-3.5 1.3008-10.602 1.5-17.199 0.39844-19.602-0.5-1.1016-3.5-6.5-7.3984-11 0.19922-0.5 0.30078-1.1016 0.60156-1.6016l7.5 5.1016c0.19922 1.5 1.6016 2.6016 3.1016 2.6016h0.5 0.19922l11.898 8.1016-8 8c-4.3984 4.3984-1.3008 11.898 4.8984 11.898h44c5.0977-0.082032 7.5977-6.2852 4-9.8828zm-81.199-38.5-5.3008-3.6016c2.3984-3.1016 4.8984-6.1992 5.8984-7.1016 0.80078-0.19922 2.8008-0.19922 5.3984 0.19922-2.0977 2.5039-4.2969 6.5039-5.9961 10.504zm14.199 9.5977c1.3008-3.5 3-7.6016 4.8984-10.699 0 1-0.10156 2.1016-0.19922 3.3984-0.19922 1.6992-0.30078 3.1992-0.10156 4.6016 0.30078 1.6016 0.80078 4.3008 1.1016 6.6016z"/>
  <path d="m29 14.898 18.301 8.6016c0.5 0.30078 1.1992 0 1.3984-0.5v-0.10156c0.30078-0.5 0-1.1992-0.5-1.3984l-1.1992-0.60156c1.3984-3.5 0.60156-7.5-1.8984-10.102l0.30078-0.60156c0.30078-0.5 0-1.1992-0.5-1.3984l-4.1016-1.8984c-0.5-0.30078-1.1992 0-1.3984 0.5l-0.40234 0.60156c-3.6016-0.30078-7.1992 1.6016-9 4.8984-0.5-0.30078-1.1992 0-1.3984 0.5v0.10156c-0.40234 0.5-0.10156 1.1992 0.39844 1.3984z"/>
 </g>
</svg>
